<svg xmlns="http://www.w3.org/2000/svg" width="1920" height="1080"><path d="M241,1294L100,1294L622,1338Z" fill="#739d66" stroke="#739d66" stroke-width="1.51"/><path d="M100,1294L-171,1297L622,1338Z" fill="#7a9f6b" stroke="#7a9f6b" stroke-width="1.51"/><path d="M-214,-248L416,-252L1185,-267Z" fill="#e4f5bd" stroke="#e4f5bd" stroke-width="1.51"/><path d="M1057,1325L622,1338L1679,1321Z" fill="#317f49" stroke="#317f49" stroke-width="1.51"/><path d="M1354,1315L1057,1325L1679,1321Z" fill="#1d7340" stroke="#1d7340" stroke-width="1.51"/><path d="M1429,-210L1579,-193L1935,-224Z" fill="#91bc87" stroke="#91bc87" stroke-width="1.51"/><path d="M1185,-267L1429,-210L1935,-224Z" fill="#98c48e" stroke="#98c48e" stroke-width="1.51"/><path d="M1579,-193L1759,-179L1935,-224Z" fill="#8db683" stroke="#8db683" stroke-width="1.51"/><path d="M2039,255L2034,348L2065,559Z" fill="#569259" stroke="#569259" stroke-width="1.51"/><path d="M1987,813L2041,860L2105,686Z" fill="#207942" stroke="#207942" stroke-width="1.51"/><path d="M2105,686L2041,860L2108,983Z" fill="#1b723e" stroke="#1b723e" stroke-width="1.51"/><path d="M2108,983L1967,1019L2121,1148Z" fill="#0a6335" stroke="#0a6335" stroke-width="1.51"/><path d="M2105,686L2108,983L2121,1148Z" fill="#136838" stroke="#136838" stroke-width="1.51"/><path d="M1935,-224L1886,-52L2135,-65Z" fill="#84a875" stroke="#84a875" stroke-width="1.51"/><path d="M1886,-52L1933,37L2135,-65Z" fill="#7fa66f" stroke="#7fa66f" stroke-width="1.51"/><path d="M1933,37L2033,110L2135,-65Z" fill="#7aa16b" stroke="#7aa16b" stroke-width="1.51"/><path d="M2065,559L2105,686L2135,-65Z" fill="#548e58" stroke="#548e58" stroke-width="1.51"/><path d="M2039,255L2065,559L2135,-65Z" fill="#65965f" stroke="#65965f" stroke-width="1.51"/><path d="M2033,110L2039,255L2135,-65Z" fill="#749d66" stroke="#749d66" stroke-width="1.51"/><path d="M2105,686L2121,1148L2135,-65Z" fill="#39824d" stroke="#39824d" stroke-width="1.51"/><path d="M1185,-267L1935,-224L2135,-259Z" fill="#8eb789" stroke="#8eb789" stroke-width="1.51"/><path d="M1935,-224L2135,-65L2135,-259Z" fill="#82a379" stroke="#82a379" stroke-width="1.51"/><path d="M2033,110L1985,202L2039,255Z" fill="#6d9d64" stroke="#6d9d64" stroke-width="1.51"/><path d="M2034,348L1904,491L2065,559Z" fill="#4c9056" stroke="#4c9056" stroke-width="1.51"/><path d="M1956,729L1987,813L2105,686Z" fill="#247f46" stroke="#247f46" stroke-width="1.51"/><path d="M1929,1118L2084,1272L2121,1148Z" fill="#005b32" stroke="#005b32" stroke-width="1.51"/><path d="M1967,1019L1929,1118L2121,1148Z" fill="#066435" stroke="#066435" stroke-width="1.51"/><path d="M1189,1308L1057,1325L1354,1315Z" fill="#297d47" stroke="#297d47" stroke-width="1.51"/><path d="M2065,559L1956,729L2105,686Z" fill="#31834b" stroke="#31834b" stroke-width="1.51"/><path d="M2041,860L1967,1019L2108,983Z" fill="#136b39" stroke="#136b39" stroke-width="1.51"/><path d="M1989,342L1904,491L2034,348Z" fill="#57965b" stroke="#57965b" stroke-width="1.51"/><path d="M1929,1118L1900,1321L2084,1272Z" fill="#005a32" stroke="#005a32" stroke-width="1.51"/><path d="M1989,342L2034,348L2039,255Z" fill="#5f975d" stroke="#5f975d" stroke-width="1.51"/><path d="M1904,491L1956,729L2065,559Z" fill="#3b8b51" stroke="#3b8b51" stroke-width="1.51"/><path d="M1830,869L1967,1019L1987,813Z" fill="#18773e" stroke="#18773e" stroke-width="1.51"/><path d="M1985,202L1989,342L2039,255Z" fill="#659b60" stroke="#659b60" stroke-width="1.51"/><path d="M1987,813L1967,1019L2041,860Z" fill="#17723d" stroke="#17723d" stroke-width="1.51"/><path d="M1933,37L1985,202L2033,110Z" fill="#75a268" stroke="#75a268" stroke-width="1.51"/><path d="M832,1311L622,1338L1057,1325Z" fill="#4b8b55" stroke="#4b8b55" stroke-width="1.51"/><path d="M1496,1291L1354,1315L1679,1321Z" fill="#156b3a" stroke="#156b3a" stroke-width="1.51"/><path d="M1821,1266L1900,1321L1929,1118Z" fill="#006034" stroke="#006034" stroke-width="1.51"/><path d="M1904,491L1775,535L1956,729Z" fill="#3e9254" stroke="#3e9254" stroke-width="1.51"/><path d="M1775,535L1741,671L1956,729Z" fill="#389151" stroke="#389151" stroke-width="1.51"/><path d="M1933,37L1764,69L1985,202Z" fill="#79a96b" stroke="#79a96b" stroke-width="1.51"/><path d="M1764,69L1747,215L1985,202Z" fill="#75aa69" stroke="#75aa69" stroke-width="1.51"/><path d="M1746,424L1904,491L1989,342Z" fill="#569c5c" stroke="#569c5c" stroke-width="1.51"/><path d="M1985,202L1747,215L1989,342Z" fill="#69a163" stroke="#69a163" stroke-width="1.51"/><path d="M1747,215L1746,424L1989,342Z" fill="#63a362" stroke="#63a362" stroke-width="1.51"/><path d="M1956,729L1830,869L1987,813Z" fill="#207f45" stroke="#207f45" stroke-width="1.51"/><path d="M1831,1123L1821,1266L1929,1118Z" fill="#006736" stroke="#006736" stroke-width="1.51"/><path d="M1734,997L1831,1123L1967,1019Z" fill="#0d703b" stroke="#0d703b" stroke-width="1.51"/><path d="M1830,869L1734,997L1967,1019Z" fill="#14763d" stroke="#14763d" stroke-width="1.51"/><path d="M1831,1123L1929,1118L1967,1019Z" fill="#076a38" stroke="#076a38" stroke-width="1.51"/><path d="M1759,-179L1886,-52L1935,-224Z" fill="#88b17c" stroke="#88b17c" stroke-width="1.51"/><path d="M1741,671L1830,869L1956,729Z" fill="#25894a" stroke="#25894a" stroke-width="1.51"/><path d="M1886,-52L1764,69L1933,37Z" fill="#80ad70" stroke="#80ad70" stroke-width="1.51"/><path d="M1821,1266L1679,1321L1900,1321Z" fill="#035e33" stroke="#035e33" stroke-width="1.51"/><path d="M1746,424L1775,535L1904,491Z" fill="#4f9b5b" stroke="#4f9b5b" stroke-width="1.51"/><path d="M1759,-179L1734,-61L1886,-52Z" fill="#8ab478" stroke="#8ab478" stroke-width="1.51"/><path d="M1734,-61L1764,69L1886,-52Z" fill="#85b173" stroke="#85b173" stroke-width="1.51"/><path d="M-214,-248L273,-231L416,-252Z" fill="#f6fbc7" stroke="#f6fbc7" stroke-width="1.51"/><path d="M1659,1123L1679,1321L1821,1266Z" fill="#096737" stroke="#096737" stroke-width="1.51"/><path d="M1741,671L1651,870L1830,869Z" fill="#268949" stroke="#268949" stroke-width="1.51"/><path d="M1651,870L1734,997L1830,869Z" fill="#1e7f42" stroke="#1e7f42" stroke-width="1.51"/><path d="M1659,1123L1821,1266L1831,1123Z" fill="#066b38" stroke="#066b38" stroke-width="1.51"/><path d="M1734,997L1659,1123L1831,1123Z" fill="#11723b" stroke="#11723b" stroke-width="1.51"/><path d="M416,-252L790,-185L1185,-267Z" fill="#cae9ae" stroke="#cae9ae" stroke-width="1.51"/><path d="M1659,-58L1663,78L1734,-61Z" fill="#89b776" stroke="#89b776" stroke-width="1.51"/><path d="M1594,723L1651,870L1741,671Z" fill="#2d914d" stroke="#2d914d" stroke-width="1.51"/><path d="M1608,409L1746,424L1747,215Z" fill="#65a863" stroke="#65a863" stroke-width="1.51"/><path d="M1637,190L1608,409L1747,215Z" fill="#6fae68" stroke="#6fae68" stroke-width="1.51"/><path d="M1663,78L1637,190L1747,215Z" fill="#7bb16d" stroke="#7bb16d" stroke-width="1.51"/><path d="M1663,78L1747,215L1764,69Z" fill="#7db16e" stroke="#7db16e" stroke-width="1.51"/><path d="M1734,-61L1663,78L1764,69Z" fill="#84b473" stroke="#84b473" stroke-width="1.51"/><path d="M1746,424L1664,553L1775,535Z" fill="#4f9e5c" stroke="#4f9e5c" stroke-width="1.51"/><path d="M1664,553L1741,671L1775,535Z" fill="#449957" stroke="#449957" stroke-width="1.51"/><path d="M1659,-58L1734,-61L1759,-179Z" fill="#8db77a" stroke="#8db77a" stroke-width="1.51"/><path d="M1579,-193L1659,-58L1759,-179Z" fill="#90bb80" stroke="#90bb80" stroke-width="1.51"/><path d="M1651,870L1592,967L1734,997Z" fill="#1f8041" stroke="#1f8041" stroke-width="1.51"/><path d="M1608,409L1664,553L1746,424Z" fill="#57a35f" stroke="#57a35f" stroke-width="1.51"/><path d="M1592,967L1659,1123L1734,997Z" fill="#19793f" stroke="#19793f" stroke-width="1.51"/><path d="M1664,553L1594,723L1741,671Z" fill="#3d9854" stroke="#3d9854" stroke-width="1.51"/><path d="M1532,371L1608,409L1637,190Z" fill="#6caf67" stroke="#6caf67" stroke-width="1.51"/><path d="M1500,212L1532,371L1637,190Z" fill="#75b36b" stroke="#75b36b" stroke-width="1.51"/><path d="M1530,-51L1534,48L1659,-58Z" fill="#8ebd78" stroke="#8ebd78" stroke-width="1.51"/><path d="M1659,-58L1534,48L1663,78Z" fill="#89b975" stroke="#89b975" stroke-width="1.51"/><path d="M1608,409L1534,535L1664,553Z" fill="#54a55e" stroke="#54a55e" stroke-width="1.51"/><path d="M1534,535L1594,723L1664,553Z" fill="#469f58" stroke="#469f58" stroke-width="1.51"/><path d="M1659,1123L1505,1155L1679,1321Z" fill="#11703a" stroke="#11703a" stroke-width="1.51"/><path d="M1505,1155L1496,1291L1679,1321Z" fill="#136d39" stroke="#136d39" stroke-width="1.51"/><path d="M1594,723L1489,857L1651,870Z" fill="#2c8f4b" stroke="#2c8f4b" stroke-width="1.51"/><path d="M1592,967L1505,1155L1659,1123Z" fill="#197a3e" stroke="#197a3e" stroke-width="1.51"/><path d="M1579,-193L1530,-51L1659,-58Z" fill="#92be7e" stroke="#92be7e" stroke-width="1.51"/><path d="M1534,48L1637,190L1663,78Z" fill="#83b771" stroke="#83b771" stroke-width="1.51"/><path d="M1534,48L1500,212L1637,190Z" fill="#81b870" stroke="#81b870" stroke-width="1.51"/><path d="M1489,857L1592,967L1651,870Z" fill="#268846" stroke="#268846" stroke-width="1.51"/><path d="M1513,951L1505,1155L1592,967Z" fill="#1f8042" stroke="#1f8042" stroke-width="1.51"/><path d="M1489,857L1513,951L1592,967Z" fill="#278845" stroke="#278845" stroke-width="1.51"/><path d="M1534,535L1433,648L1594,723Z" fill="#45a159" stroke="#45a159" stroke-width="1.51"/><path d="M790,-185L853,-184L1185,-267Z" fill="#bde3a7" stroke="#bde3a7" stroke-width="1.51"/><path d="M1532,371L1534,535L1608,409Z" fill="#5faa62" stroke="#5faa62" stroke-width="1.51"/><path d="M1433,648L1489,857L1594,723Z" fill="#369b52" stroke="#369b52" stroke-width="1.51"/><path d="M1429,-210L1530,-51L1579,-193Z" fill="#96c386" stroke="#96c386" stroke-width="1.51"/><path d="M1185,-267L1343,-197L1429,-210Z" fill="#a1d196" stroke="#a1d196" stroke-width="1.51"/><path d="M480,1308L241,1294L622,1338Z" fill="#6b9962" stroke="#6b9962" stroke-width="1.51"/><path d="M1433,648L1370,803L1489,857Z" fill="#379e54" stroke="#379e54" stroke-width="1.51"/><path d="M1367,968L1505,1155L1513,951Z" fill="#238545" stroke="#238545" stroke-width="1.51"/><path d="M1429,-210L1327,-111L1530,-51Z" fill="#9ac987" stroke="#9ac987" stroke-width="1.51"/><path d="M1327,-111L1342,113L1530,-51Z" fill="#96c880" stroke="#96c880" stroke-width="1.51"/><path d="M1500,212L1385,361L1532,371Z" fill="#73b76c" stroke="#73b76c" stroke-width="1.51"/><path d="M1294,531L1433,648L1534,535Z" fill="#52ac62" stroke="#52ac62" stroke-width="1.51"/><path d="M1385,361L1294,531L1534,535Z" fill="#61b267" stroke="#61b267" stroke-width="1.51"/><path d="M1532,371L1385,361L1534,535Z" fill="#64b066" stroke="#64b066" stroke-width="1.51"/><path d="M1372,183L1500,212L1534,48Z" fill="#86bf75" stroke="#86bf75" stroke-width="1.51"/><path d="M1342,113L1372,183L1534,48Z" fill="#8bc378" stroke="#8bc378" stroke-width="1.51"/><path d="M1530,-51L1342,113L1534,48Z" fill="#8ec27a" stroke="#8ec27a" stroke-width="1.51"/><path d="M1348,1189L1496,1291L1505,1155Z" fill="#1a783f" stroke="#1a783f" stroke-width="1.51"/><path d="M1372,183L1385,361L1500,212Z" fill="#7cbd72" stroke="#7cbd72" stroke-width="1.51"/><path d="M1367,968L1348,1189L1505,1155Z" fill="#218345" stroke="#218345" stroke-width="1.51"/><path d="M1489,857L1367,968L1513,951Z" fill="#2b8d49" stroke="#2b8d49" stroke-width="1.51"/><path d="M1350,684L1370,803L1433,648Z" fill="#40a55a" stroke="#40a55a" stroke-width="1.51"/><path d="M1348,1189L1354,1315L1496,1291Z" fill="#1c7740" stroke="#1c7740" stroke-width="1.51"/><path d="M1370,803L1367,968L1489,857Z" fill="#30944e" stroke="#30944e" stroke-width="1.51"/><path d="M1343,-197L1327,-111L1429,-210Z" fill="#9ecd8f" stroke="#9ecd8f" stroke-width="1.51"/><path d="M1294,531L1350,684L1433,648Z" fill="#4fac61" stroke="#4fac61" stroke-width="1.51"/><path d="M1327,-111L1177,-32L1342,113Z" fill="#9bd085" stroke="#9bd085" stroke-width="1.51"/><path d="M1177,-32L1216,109L1342,113Z" fill="#98d083" stroke="#98d083" stroke-width="1.51"/><path d="M1294,531L1239,637L1350,684Z" fill="#52b164" stroke="#52b164" stroke-width="1.51"/><path d="M1183,995L1348,1189L1367,968Z" fill="#2a8e4b" stroke="#2a8e4b" stroke-width="1.51"/><path d="M1172,881L1367,968L1370,803Z" fill="#359b52" stroke="#359b52" stroke-width="1.51"/><path d="M1372,183L1229,352L1385,361Z" fill="#7cc174" stroke="#7cc174" stroke-width="1.51"/><path d="M1229,352L1294,531L1385,361Z" fill="#6ebc6f" stroke="#6ebc6f" stroke-width="1.51"/><path d="M1216,109L1145,292L1229,352Z" fill="#89cb7c" stroke="#89cb7c" stroke-width="1.51"/><path d="M1183,995L1135,1166L1348,1189Z" fill="#2d8d4c" stroke="#2d8d4c" stroke-width="1.51"/><path d="M1348,1189L1189,1308L1354,1315Z" fill="#217c44" stroke="#217c44" stroke-width="1.51"/><path d="M1172,881L1183,995L1367,968Z" fill="#359951" stroke="#359951" stroke-width="1.51"/><path d="M1350,684L1239,637L1370,803Z" fill="#44a95d" stroke="#44a95d" stroke-width="1.51"/><path d="M1239,637L1172,881L1370,803Z" fill="#3fa85b" stroke="#3fa85b" stroke-width="1.51"/><path d="M1342,113L1216,109L1372,183Z" fill="#8eca7d" stroke="#8eca7d" stroke-width="1.51"/><path d="M1216,109L1229,352L1372,183Z" fill="#88c97a" stroke="#88c97a" stroke-width="1.51"/><path d="M1135,1166L1189,1308L1348,1189Z" fill="#288449" stroke="#288449" stroke-width="1.51"/><path d="M1185,-267L1327,-111L1343,-197Z" fill="#a3d394" stroke="#a3d394" stroke-width="1.51"/><path d="M1185,-267L1177,-32L1327,-111Z" fill="#a5d691" stroke="#a5d691" stroke-width="1.51"/><path d="M853,-184L1016,-180L1185,-267Z" fill="#b7e0a4" stroke="#b7e0a4" stroke-width="1.51"/><path d="M1040,685L1172,881L1239,637Z" fill="#4eb163" stroke="#4eb163" stroke-width="1.51"/><path d="M1180,563L1239,637L1294,531Z" fill="#5bb769" stroke="#5bb769" stroke-width="1.51"/><path d="M1229,352L1180,563L1294,531Z" fill="#68bd6f" stroke="#68bd6f" stroke-width="1.51"/><path d="M1082,-44L1177,-32L1185,-267Z" fill="#abd993" stroke="#abd993" stroke-width="1.51"/><path d="M1016,-180L1082,-44L1185,-267Z" fill="#b0dc9b" stroke="#b0dc9b" stroke-width="1.51"/><path d="M1003,344L1180,563L1229,352Z" fill="#79c576" stroke="#79c576" stroke-width="1.51"/><path d="M1145,292L1003,344L1229,352Z" fill="#86ca7b" stroke="#86ca7b" stroke-width="1.51"/><path d="M1180,563L1040,685L1239,637Z" fill="#5cb86a" stroke="#5cb86a" stroke-width="1.51"/><path d="M1003,344L1020,569L1180,563Z" fill="#76c476" stroke="#76c476" stroke-width="1.51"/><path d="M1081,1005L1135,1166L1183,995Z" fill="#3a9553" stroke="#3a9553" stroke-width="1.51"/><path d="M1011,207L1145,292L1216,109Z" fill="#95d082" stroke="#95d082" stroke-width="1.51"/><path d="M1015,134L1011,207L1216,109Z" fill="#9dd587" stroke="#9dd587" stroke-width="1.51"/><path d="M1040,685L1018,874L1172,881Z" fill="#4fac61" stroke="#4fac61" stroke-width="1.51"/><path d="M1177,-32L1082,-44L1216,109Z" fill="#a3d68a" stroke="#a3d68a" stroke-width="1.51"/><path d="M1082,-44L1015,134L1216,109Z" fill="#a3d789" stroke="#a3d789" stroke-width="1.51"/><path d="M1081,1005L1034,1100L1135,1166Z" fill="#3d9553" stroke="#3d9553" stroke-width="1.51"/><path d="M1020,569L1040,685L1180,563Z" fill="#66bc6f" stroke="#66bc6f" stroke-width="1.51"/><path d="M1172,881L1081,1005L1183,995Z" fill="#3e9c55" stroke="#3e9c55" stroke-width="1.51"/><path d="M1135,1166L1057,1325L1189,1308Z" fill="#32844c" stroke="#32844c" stroke-width="1.51"/><path d="M1018,874L1081,1005L1172,881Z" fill="#46a25a" stroke="#46a25a" stroke-width="1.51"/><path d="M1034,1100L1057,1325L1135,1166Z" fill="#388d50" stroke="#388d50" stroke-width="1.51"/><path d="M1011,207L1003,344L1145,292Z" fill="#91d081" stroke="#91d081" stroke-width="1.51"/><path d="M894,-70L881,95L1015,134Z" fill="#b2de93" stroke="#b2de93" stroke-width="1.51"/><path d="M1003,344L863,393L1020,569Z" fill="#86cc7e" stroke="#86cc7e" stroke-width="1.51"/><path d="M863,393L877,546L1020,569Z" fill="#81ca7c" stroke="#81ca7c" stroke-width="1.51"/><path d="M933,720L1018,874L1040,685Z" fill="#5ab568" stroke="#5ab568" stroke-width="1.51"/><path d="M1034,1100L835,1191L1057,1325Z" fill="#429155" stroke="#429155" stroke-width="1.51"/><path d="M910,1023L1034,1100L1081,1005Z" fill="#479c58" stroke="#479c58" stroke-width="1.51"/><path d="M1018,874L910,1023L1081,1005Z" fill="#4ba25b" stroke="#4ba25b" stroke-width="1.51"/><path d="M1016,-180L894,-70L1082,-44Z" fill="#b7e098" stroke="#b7e098" stroke-width="1.51"/><path d="M894,-70L1015,134L1082,-44Z" fill="#b0dd92" stroke="#b0dd92" stroke-width="1.51"/><path d="M835,1191L832,1311L1057,1325Z" fill="#478d54" stroke="#478d54" stroke-width="1.51"/><path d="M416,-252L616,-167L790,-185Z" fill="#d9efb2" stroke="#d9efb2" stroke-width="1.51"/><path d="M1020,569L933,720L1040,685Z" fill="#66bd6f" stroke="#66bd6f" stroke-width="1.51"/><path d="M863,263L1003,344L1011,207Z" fill="#9ad586" stroke="#9ad586" stroke-width="1.51"/><path d="M933,720L836,814L1018,874Z" fill="#5db468" stroke="#5db468" stroke-width="1.51"/><path d="M877,546L933,720L1020,569Z" fill="#71c274" stroke="#71c274" stroke-width="1.51"/><path d="M910,1023L835,1191L1034,1100Z" fill="#4b9b59" stroke="#4b9b59" stroke-width="1.51"/><path d="M881,95L1011,207L1015,134Z" fill="#a7da8c" stroke="#a7da8c" stroke-width="1.51"/><path d="M853,-184L894,-70L1016,-180Z" fill="#bee3a1" stroke="#bee3a1" stroke-width="1.51"/><path d="M836,814L910,1023L1018,874Z" fill="#57ab62" stroke="#57ab62" stroke-width="1.51"/><path d="M881,95L863,263L1011,207Z" fill="#a7da8c" stroke="#a7da8c" stroke-width="1.51"/><path d="M863,263L863,393L1003,344Z" fill="#97d485" stroke="#97d485" stroke-width="1.51"/><path d="M788,41L881,95L894,-70Z" fill="#bae297" stroke="#bae297" stroke-width="1.51"/><path d="M836,814L684,1001L910,1023Z" fill="#5fab63" stroke="#5fab63" stroke-width="1.51"/><path d="M877,546L783,634L933,720Z" fill="#75c476" stroke="#75c476" stroke-width="1.51"/><path d="M783,634L836,814L933,720Z" fill="#6cbe70" stroke="#6cbe70" stroke-width="1.51"/><path d="M863,393L756,506L877,546Z" fill="#8bcf80" stroke="#8bcf80" stroke-width="1.51"/><path d="M725,208L863,263L881,95Z" fill="#afde90" stroke="#afde90" stroke-width="1.51"/><path d="M777,1195L835,1191L910,1023Z" fill="#529c5b" stroke="#529c5b" stroke-width="1.51"/><path d="M684,1001L777,1195L910,1023Z" fill="#5aa25f" stroke="#5aa25f" stroke-width="1.51"/><path d="M782,1250L832,1311L835,1191Z" fill="#509258" stroke="#509258" stroke-width="1.51"/><path d="M725,816L684,1001L836,814Z" fill="#6ab469" stroke="#6ab469" stroke-width="1.51"/><path d="M853,-184L790,-185L894,-70Z" fill="#c4e6a4" stroke="#c4e6a4" stroke-width="1.51"/><path d="M790,-185L726,-101L894,-70Z" fill="#c7e8a3" stroke="#c7e8a3" stroke-width="1.51"/><path d="M726,-101L788,41L894,-70Z" fill="#c4e69c" stroke="#c4e69c" stroke-width="1.51"/><path d="M696,351L863,393L863,263Z" fill="#a1d889" stroke="#a1d889" stroke-width="1.51"/><path d="M788,41L725,208L881,95Z" fill="#b8e294" stroke="#b8e294" stroke-width="1.51"/><path d="M783,634L725,816L836,814Z" fill="#6fbe70" stroke="#6fbe70" stroke-width="1.51"/><path d="M756,506L783,634L877,546Z" fill="#84cb7d" stroke="#84cb7d" stroke-width="1.51"/><path d="M696,351L756,506L863,393Z" fill="#99d486" stroke="#99d486" stroke-width="1.51"/><path d="M725,208L696,351L863,263Z" fill="#abdc8d" stroke="#abdc8d" stroke-width="1.51"/><path d="M-214,-248L-42,-207L273,-231Z" fill="#fbfdcd" stroke="#fbfdcd" stroke-width="1.51"/><path d="M782,1250L622,1338L832,1311Z" fill="#549058" stroke="#549058" stroke-width="1.51"/><path d="M777,1195L782,1250L835,1191Z" fill="#53975a" stroke="#53975a" stroke-width="1.51"/><path d="M684,1001L592,1191L777,1195Z" fill="#61a261" stroke="#61a261" stroke-width="1.51"/><path d="M586,731L725,816L783,634Z" fill="#79c475" stroke="#79c475" stroke-width="1.51"/><path d="M756,506L618,519L783,634Z" fill="#8cce80" stroke="#8cce80" stroke-width="1.51"/><path d="M726,-101L610,140L788,41Z" fill="#c7e89c" stroke="#c7e89c" stroke-width="1.51"/><path d="M610,140L725,208L788,41Z" fill="#bfe597" stroke="#bfe597" stroke-width="1.51"/><path d="M616,-167L726,-101L790,-185Z" fill="#cfeba9" stroke="#cfeba9" stroke-width="1.51"/><path d="M777,1195L592,1191L782,1250Z" fill="#5a9a5d" stroke="#5a9a5d" stroke-width="1.51"/><path d="M618,519L586,731L783,634Z" fill="#89cc7d" stroke="#89cc7d" stroke-width="1.51"/><path d="M570,-102L610,140L726,-101Z" fill="#d0eca1" stroke="#d0eca1" stroke-width="1.51"/><path d="M592,1191L622,1338L782,1250Z" fill="#5d985d" stroke="#5d985d" stroke-width="1.51"/><path d="M632,821L684,1001L725,816Z" fill="#70b66c" stroke="#70b66c" stroke-width="1.51"/><path d="M618,1001L592,1191L684,1001Z" fill="#68a964" stroke="#68a964" stroke-width="1.51"/><path d="M586,731L632,821L725,816Z" fill="#79c072" stroke="#79c072" stroke-width="1.51"/><path d="M696,351L618,519L756,506Z" fill="#9bd586" stroke="#9bd586" stroke-width="1.51"/><path d="M632,821L618,1001L684,1001Z" fill="#6eb168" stroke="#6eb168" stroke-width="1.51"/><path d="M570,441L618,519L696,351Z" fill="#a3d989" stroke="#a3d989" stroke-width="1.51"/><path d="M529,189L696,351L725,208Z" fill="#b7e293" stroke="#b7e293" stroke-width="1.51"/><path d="M610,140L529,189L725,208Z" fill="#c1e597" stroke="#c1e597" stroke-width="1.51"/><path d="M616,-167L570,-102L726,-101Z" fill="#d5eea9" stroke="#d5eea9" stroke-width="1.51"/><path d="M529,189L570,441L696,351Z" fill="#b2e090" stroke="#b2e090" stroke-width="1.51"/><path d="M570,-102L444,74L610,140Z" fill="#d3eda1" stroke="#d3eda1" stroke-width="1.51"/><path d="M-42,-207L134,-199L273,-231Z" fill="#f7fcc5" stroke="#f7fcc5" stroke-width="1.51"/><path d="M529,189L421,281L570,441Z" fill="#bce495" stroke="#bce495" stroke-width="1.51"/><path d="M436,809L382,938L618,1001Z" fill="#7db970" stroke="#7db970" stroke-width="1.51"/><path d="M489,1117L592,1191L618,1001Z" fill="#6ba866" stroke="#6ba866" stroke-width="1.51"/><path d="M427,569L586,731L618,519Z" fill="#94d183" stroke="#94d183" stroke-width="1.51"/><path d="M592,1191L480,1308L622,1338Z" fill="#649860" stroke="#649860" stroke-width="1.51"/><path d="M436,809L618,1001L632,821Z" fill="#79ba70" stroke="#79ba70" stroke-width="1.51"/><path d="M586,731L436,809L632,821Z" fill="#80c376" stroke="#80c376" stroke-width="1.51"/><path d="M444,74L529,189L610,140Z" fill="#cdea9c" stroke="#cdea9c" stroke-width="1.51"/><path d="M416,-252L570,-102L616,-167Z" fill="#def1b2" stroke="#def1b2" stroke-width="1.51"/><path d="M382,938L489,1117L618,1001Z" fill="#75b06a" stroke="#75b06a" stroke-width="1.51"/><path d="M570,441L427,569L618,519Z" fill="#a0d789" stroke="#a0d789" stroke-width="1.51"/><path d="M416,-252L446,-102L570,-102Z" fill="#e1f3b2" stroke="#e1f3b2" stroke-width="1.51"/><path d="M446,-102L444,74L570,-102Z" fill="#ddf1a7" stroke="#ddf1a7" stroke-width="1.51"/><path d="M427,569L390,648L586,731Z" fill="#95d182" stroke="#95d182" stroke-width="1.51"/><path d="M421,281L394,374L570,441Z" fill="#b8e293" stroke="#b8e293" stroke-width="1.51"/><path d="M489,1117L480,1308L592,1191Z" fill="#6aa164" stroke="#6aa164" stroke-width="1.51"/><path d="M390,648L436,809L586,731Z" fill="#8bcb7c" stroke="#8bcb7c" stroke-width="1.51"/><path d="M394,374L427,569L570,441Z" fill="#acdc8e" stroke="#acdc8e" stroke-width="1.51"/><path d="M444,74L421,281L529,189Z" fill="#ccea9c" stroke="#ccea9c" stroke-width="1.51"/><path d="M304,86L271,219L421,281Z" fill="#d4eea0" stroke="#d4eea0" stroke-width="1.51"/><path d="M304,86L421,281L444,74Z" fill="#d5eea1" stroke="#d5eea1" stroke-width="1.51"/><path d="M285,-26L444,74L446,-102Z" fill="#e1f3a9" stroke="#e1f3a9" stroke-width="1.51"/><path d="M382,938L309,1004L489,1117Z" fill="#7db36e" stroke="#7db36e" stroke-width="1.51"/><path d="M281,1176L480,1308L489,1117Z" fill="#72a467" stroke="#72a467" stroke-width="1.51"/><path d="M309,1004L281,1176L489,1117Z" fill="#7baf6c" stroke="#7baf6c" stroke-width="1.51"/><path d="M281,1176L241,1294L480,1308Z" fill="#75a167" stroke="#75a167" stroke-width="1.51"/><path d="M394,374L303,565L427,569Z" fill="#addd8f" stroke="#addd8f" stroke-width="1.51"/><path d="M302,893L382,938L436,809Z" fill="#87c076" stroke="#87c076" stroke-width="1.51"/><path d="M390,648L339,660L436,809Z" fill="#94cf81" stroke="#94cf81" stroke-width="1.51"/><path d="M285,-26L304,86L444,74Z" fill="#e0f3a8" stroke="#e0f3a8" stroke-width="1.51"/><path d="M416,-252L273,-231L446,-102Z" fill="#e9f7ba" stroke="#e9f7ba" stroke-width="1.51"/><path d="M273,-231L285,-26L446,-102Z" fill="#ebf7b3" stroke="#ebf7b3" stroke-width="1.51"/><path d="M249,389L303,565L394,374Z" fill="#b8e294" stroke="#b8e294" stroke-width="1.51"/><path d="M339,660L302,893L436,809Z" fill="#8fca7d" stroke="#8fca7d" stroke-width="1.51"/><path d="M303,565L390,648L427,569Z" fill="#a3d78a" stroke="#a3d78a" stroke-width="1.51"/><path d="M271,219L394,374L421,281Z" fill="#c8e99a" stroke="#c8e99a" stroke-width="1.51"/><path d="M190,862L302,893L339,660Z" fill="#92c97e" stroke="#92c97e" stroke-width="1.51"/><path d="M303,565L339,660L390,648Z" fill="#a1d688" stroke="#a1d688" stroke-width="1.51"/><path d="M271,219L249,389L394,374Z" fill="#c7e89b" stroke="#c7e89b" stroke-width="1.51"/><path d="M302,893L309,1004L382,938Z" fill="#85ba73" stroke="#85ba73" stroke-width="1.51"/><path d="M273,-231L134,-199L285,-26Z" fill="#f0f9ba" stroke="#f0f9ba" stroke-width="1.51"/><path d="M249,389L180,488L303,565Z" fill="#b7e195" stroke="#b7e195" stroke-width="1.51"/><path d="M168,1008L281,1176L309,1004Z" fill="#83b372" stroke="#83b372" stroke-width="1.51"/><path d="M303,565L78,666L339,660Z" fill="#a5d88c" stroke="#a5d88c" stroke-width="1.51"/><path d="M78,666L190,862L339,660Z" fill="#9cd286" stroke="#9cd286" stroke-width="1.51"/><path d="M190,862L168,1008L302,893Z" fill="#8dbf78" stroke="#8dbf78" stroke-width="1.51"/><path d="M180,488L78,666L303,565Z" fill="#afdd92" stroke="#afdd92" stroke-width="1.51"/><path d="M285,-26L187,132L304,86Z" fill="#e3f4aa" stroke="#e3f4aa" stroke-width="1.51"/><path d="M187,132L271,219L304,86Z" fill="#ddf1a6" stroke="#ddf1a6" stroke-width="1.51"/><path d="M302,893L168,1008L309,1004Z" fill="#87ba74" stroke="#87ba74" stroke-width="1.51"/><path d="M133,230L249,389L271,219Z" fill="#d0eca0" stroke="#d0eca0" stroke-width="1.51"/><path d="M168,1008L105,1145L281,1176Z" fill="#84b272" stroke="#84b272" stroke-width="1.51"/><path d="M134,-199L90,-21L285,-26Z" fill="#f2fab5" stroke="#f2fab5" stroke-width="1.51"/><path d="M33,1273L-171,1297L100,1294Z" fill="#82a475" stroke="#82a475" stroke-width="1.51"/><path d="M105,1145L241,1294L281,1176Z" fill="#7da96e" stroke="#7da96e" stroke-width="1.51"/><path d="M90,-21L187,132L285,-26Z" fill="#e9f7af" stroke="#e9f7af" stroke-width="1.51"/><path d="M133,230L82,359L249,389Z" fill="#cfeba0" stroke="#cfeba0" stroke-width="1.51"/><path d="M105,1145L100,1294L241,1294Z" fill="#7fa66e" stroke="#7fa66e" stroke-width="1.51"/><path d="M187,132L133,230L271,219Z" fill="#daf1a5" stroke="#daf1a5" stroke-width="1.51"/><path d="M82,359L180,488L249,389Z" fill="#c3e69b" stroke="#c3e69b" stroke-width="1.51"/><path d="M-39,506L78,666L180,488Z" fill="#b7e097" stroke="#b7e097" stroke-width="1.51"/><path d="M90,-21L7,94L187,132Z" fill="#ebf7af" stroke="#ebf7af" stroke-width="1.51"/><path d="M78,666L-8,701L190,862Z" fill="#a0d389" stroke="#a0d389" stroke-width="1.51"/><path d="M-8,701L-43,835L190,862Z" fill="#9dcf87" stroke="#9dcf87" stroke-width="1.51"/><path d="M-21,975L168,1008L190,862Z" fill="#90bf7a" stroke="#90bf7a" stroke-width="1.51"/><path d="M-43,835L-21,975L190,862Z" fill="#97c682" stroke="#97c682" stroke-width="1.51"/><path d="M7,94L133,230L187,132Z" fill="#e3f4aa" stroke="#e3f4aa" stroke-width="1.51"/><path d="M82,359L-39,506L180,488Z" fill="#c3e69d" stroke="#c3e69d" stroke-width="1.51"/><path d="M-28,1098L105,1145L168,1008Z" fill="#8ab576" stroke="#8ab576" stroke-width="1.51"/><path d="M-21,975L-28,1098L168,1008Z" fill="#8fba7b" stroke="#8fba7b" stroke-width="1.51"/><path d="M33,-15L7,94L90,-21Z" fill="#f1f9b5" stroke="#f1f9b5" stroke-width="1.51"/><path d="M33,1273L100,1294L105,1145Z" fill="#82a871" stroke="#82a871" stroke-width="1.51"/><path d="M-62,209L82,359L133,230Z" fill="#daf0a7" stroke="#daf0a7" stroke-width="1.51"/><path d="M7,94L-62,209L133,230Z" fill="#e3f4ae" stroke="#e3f4ae" stroke-width="1.51"/><path d="M33,-15L90,-21L134,-199Z" fill="#f6fcb8" stroke="#f6fcb8" stroke-width="1.51"/><path d="M-42,-207L33,-15L134,-199Z" fill="#f9fcc1" stroke="#f9fcc1" stroke-width="1.51"/><path d="M-62,209L-41,374L82,359Z" fill="#d5eea9" stroke="#d5eea9" stroke-width="1.51"/><path d="M-41,374L-39,506L82,359Z" fill="#c9e9a4" stroke="#c9e9a4" stroke-width="1.51"/><path d="M-28,1098L33,1273L105,1145Z" fill="#87af76" stroke="#87af76" stroke-width="1.51"/><path d="M-39,506L-8,701L78,666Z" fill="#b0dc96" stroke="#b0dc96" stroke-width="1.51"/><path d="M-165,1108L-171,1297L-28,1098Z" fill="#88b081" stroke="#88b081" stroke-width="1.51"/><path d="M-39,506L-111,692L-8,701Z" fill="#b0dc9a" stroke="#b0dc9a" stroke-width="1.51"/><path d="M-28,1098L-171,1297L33,1273Z" fill="#85ab7a" stroke="#85ab7a" stroke-width="1.51"/><path d="M-42,-207L-181,-81L33,-15Z" fill="#fafcc5" stroke="#fafcc5" stroke-width="1.51"/><path d="M-130,82L7,94L33,-15Z" fill="#eff9b8" stroke="#eff9b8" stroke-width="1.51"/><path d="M-181,-81L-130,82L33,-15Z" fill="#f4fbc0" stroke="#f4fbc0" stroke-width="1.51"/><path d="M-111,692L-125,811L-43,835Z" fill="#a1d292" stroke="#a1d292" stroke-width="1.51"/><path d="M-133,510L-111,692L-39,506Z" fill="#b8e0a2" stroke="#b8e0a2" stroke-width="1.51"/><path d="M-111,692L-43,835L-8,701Z" fill="#a3d492" stroke="#a3d492" stroke-width="1.51"/><path d="M-130,82L-62,209L7,94Z" fill="#eaf7b7" stroke="#eaf7b7" stroke-width="1.51"/><path d="M-125,811L-213,935L-43,835Z" fill="#9bc98f" stroke="#9bc98f" stroke-width="1.51"/><path d="M-62,209L-163,253L-41,374Z" fill="#daf0b1" stroke="#daf0b1" stroke-width="1.51"/><path d="M-41,374L-147,427L-39,506Z" fill="#c8e8a8" stroke="#c8e8a8" stroke-width="1.51"/><path d="M-43,835L-213,935L-21,975Z" fill="#97c489" stroke="#97c489" stroke-width="1.51"/><path d="M-165,1108L-28,1098L-21,975Z" fill="#8eb881" stroke="#8eb881" stroke-width="1.51"/><path d="M-147,427L-133,510L-39,506Z" fill="#c3e6a7" stroke="#c3e6a7" stroke-width="1.51"/><path d="M-213,935L-165,1108L-21,975Z" fill="#92bd87" stroke="#92bd87" stroke-width="1.51"/><path d="M-214,-248L-181,-81L-42,-207Z" fill="#fcfdd3" stroke="#fcfdd3" stroke-width="1.51"/><path d="M-163,253L-147,427L-41,374Z" fill="#d3edaf" stroke="#d3edaf" stroke-width="1.51"/><path d="M-130,82L-163,253L-62,209Z" fill="#e5f5b8" stroke="#e5f5b8" stroke-width="1.51"/><path d="M-213,935L-125,811L-111,692Z" fill="#a0ce94" stroke="#a0ce94" stroke-width="1.51"/><path d="M-133,510L-213,935L-111,692Z" fill="#a8d79c" stroke="#a8d79c" stroke-width="1.51"/><path d="M-147,427L-213,935L-133,510Z" fill="#b2dda2" stroke="#b2dda2" stroke-width="1.51"/><path d="M-181,-81L-163,253L-130,82Z" fill="#eef9c0" stroke="#eef9c0" stroke-width="1.51"/><path d="M-163,253L-213,935L-147,427Z" fill="#bce2a9" stroke="#bce2a9" stroke-width="1.51"/><path d="M-213,935L-171,1297L-165,1108Z" fill="#8cb587" stroke="#8cb587" stroke-width="1.51"/><path d="M-181,-81L-214,-248L-163,253Z" fill="#f7fcc8" stroke="#f7fcc8" stroke-width="1.51"/><path d="M-214,-248L-213,935L-163,253Z" fill="#d8efb7" stroke="#d8efb7" stroke-width="1.51"/></svg>