<?xml version="1.0" encoding="UTF-8" standalone="no"?>
<svg
   xmlns:ooo="http://xml.openoffice.org/svg/export"
   xmlns:dc="http://purl.org/dc/elements/1.1/"
   xmlns:cc="http://creativecommons.org/ns#"
   xmlns:rdf="http://www.w3.org/1999/02/22-rdf-syntax-ns#"
   xmlns:svg="http://www.w3.org/2000/svg"
   xmlns="http://www.w3.org/2000/svg"
   xmlns:sodipodi="http://sodipodi.sourceforge.net/DTD/sodipodi-0.dtd"
   xmlns:inkscape="http://www.inkscape.org/namespaces/inkscape"
   version="1.2"
   width="665"
   height="480"
   viewBox="0 0 18767.779 13546.667"
   preserveAspectRatio="xMidYMid"
   clip-path="url(#presentation_clip_path)"
   xml:space="preserve"
   id="svg2"
   inkscape:version="0.91 r13725"
   sodipodi:docname="Media-exchange-for-WebRTC.svg"
   style="fill-rule:evenodd;stroke-width:28.22200012;stroke-linejoin:round"
   inkscape:export-filename="/tmp/Media-exchange-for-WebRTC.png"
   inkscape:export-xdpi="90"
   inkscape:export-ydpi="90"><metadata
     id="metadata347"><rdf:RDF><cc:Work
         rdf:about=""><dc:format>image/svg+xml</dc:format><dc:type
           rdf:resource="http://purl.org/dc/dcmitype/StillImage" /><dc:title></dc:title></cc:Work></rdf:RDF></metadata><sodipodi:namedview
     pagecolor="#ffffff"
     bordercolor="#666666"
     borderopacity="1"
     objecttolerance="10"
     gridtolerance="10"
     guidetolerance="10"
     inkscape:pageopacity="0"
     inkscape:pageshadow="2"
     inkscape:window-width="1920"
     inkscape:window-height="1020"
     id="namedview345"
     showgrid="false"
     inkscape:zoom="1"
     inkscape:cx="182.74836"
     inkscape:cy="292.81062"
     inkscape:window-x="0"
     inkscape:window-y="411"
     inkscape:window-maximized="1"
     inkscape:current-layer="svg2"
     showguides="true"
     inkscape:guide-bbox="true"
     inkscape:snap-grids="true" /><defs
     class="ClipPathGroup"
     id="defs4"><clipPath
       id="presentation_clip_path"
       clipPathUnits="userSpaceOnUse"><rect
         x="0"
         y="0"
         width="28000"
         height="21000"
         id="rect7" /></clipPath></defs><defs
     class="TextShapeIndex"
     id="defs9"><g
       ooo:slide="id1"
       ooo:id-list="id6 id7 id8 id9 id10 id11 id12 id13 id14 id15 id16 id17 id18 id19 id20 id21"
       id="g11" /></defs><defs
     class="EmbeddedBulletChars"
     id="defs13"><g
       id="bullet-char-template(57356)"
       transform="scale(4.8828125e-4,-4.8828125e-4)"><path
         d="M 580,1141 1163,571 580,0 -4,571 580,1141 z"
         id="path16"
         inkscape:connector-curvature="0" /></g><g
       id="bullet-char-template(57354)"
       transform="scale(4.8828125e-4,-4.8828125e-4)"><path
         d="m 8,1128 1129,0 L 1137,0 8,0 8,1128 z"
         id="path19"
         inkscape:connector-curvature="0" /></g><g
       id="bullet-char-template(10146)"
       transform="scale(4.8828125e-4,-4.8828125e-4)"><path
         d="M 174,0 602,739 174,1481 1456,739 174,0 z m 1184,739 -1049,607 350,-607 699,0 z"
         id="path22"
         inkscape:connector-curvature="0" /></g><g
       id="bullet-char-template(10132)"
       transform="scale(4.8828125e-4,-4.8828125e-4)"><path
         d="M 2015,739 1276,0 717,0 l 543,543 -1086,0 0,393 1086,0 -543,545 557,0 741,-742 z"
         id="path25"
         inkscape:connector-curvature="0" /></g><g
       id="bullet-char-template(10007)"
       transform="scale(4.8828125e-4,-4.8828125e-4)"><path
         d="m 0,-2 c -7,16 -16,29 -25,39 l 381,530 c -94,256 -141,385 -141,387 0,25 13,38 40,38 9,0 21,-2 34,-5 21,4 42,12 65,25 l 27,-13 111,-251 280,301 64,-25 24,25 c 21,-10 41,-24 62,-43 C 886,937 835,863 770,784 769,783 710,716 594,584 L 774,223 c 0,-27 -21,-55 -63,-84 l 16,-20 C 717,90 699,76 672,76 641,76 570,178 457,381 L 164,-76 c -22,-34 -53,-51 -92,-51 -42,0 -63,17 -64,51 -7,9 -10,24 -10,44 0,9 1,19 2,30 z"
         id="path28"
         inkscape:connector-curvature="0" /></g><g
       id="bullet-char-template(10004)"
       transform="scale(4.8828125e-4,-4.8828125e-4)"><path
         d="M 285,-33 C 182,-33 111,30 74,156 52,228 41,333 41,471 c 0,78 14,145 41,201 34,71 87,106 158,106 53,0 88,-31 106,-94 l 23,-176 c 8,-64 28,-97 59,-98 l 735,706 c 11,11 33,17 66,17 42,0 63,-15 63,-46 l 0,-122 c 0,-36 -10,-64 -30,-84 L 442,47 C 390,-6 338,-33 285,-33 z"
         id="path31"
         inkscape:connector-curvature="0" /></g><g
       id="bullet-char-template(9679)"
       transform="scale(4.8828125e-4,-4.8828125e-4)"><path
         d="M 813,0 C 632,0 489,54 383,161 276,268 223,411 223,592 c 0,181 53,324 160,431 106,107 249,161 430,161 179,0 323,-54 432,-161 108,-107 162,-251 162,-431 0,-180 -54,-324 -162,-431 C 1136,54 992,0 813,0 z"
         id="path34"
         inkscape:connector-curvature="0" /></g><g
       id="bullet-char-template(8226)"
       transform="scale(4.8828125e-4,-4.8828125e-4)"><path
         d="m 346,457 c -73,0 -137,26 -191,78 -54,51 -81,114 -81,188 0,73 27,136 81,188 54,52 118,78 191,78 73,0 134,-26 185,-79 51,-51 77,-114 77,-187 0,-75 -25,-137 -76,-188 -50,-52 -112,-78 -186,-78 z"
         id="path37"
         inkscape:connector-curvature="0" /></g><g
       id="bullet-char-template(8211)"
       transform="scale(4.8828125e-4,-4.8828125e-4)"><path
         d="m -4,459 1139,0 0,147 -1139,0 0,-147 z"
         id="path40"
         inkscape:connector-curvature="0" /></g></defs><defs
     class="TextEmbeddedBitmaps"
     id="defs42" /><g
     class="com.sun.star.drawing.CustomShape"
     id="g73"
     transform="translate(-4289.7774,-1978.2224)"><g
       id="id6"><path
         d="m 9628,9168 -1016,0 0,-4064 2032,0 0,4064 -1016,0 z"
         id="path76"
         inkscape:connector-curvature="0"
         style="fill:#83caff;stroke:none" /><path
         d="m 9628,9168 -1016,0 0,-4064 2032,0 0,4064 -1016,0 z"
         id="path78"
         inkscape:connector-curvature="0"
         style="fill:none;stroke:#3465af" /><text
         class="TextShape"
         id="text80"><tspan
           class="TextParagraph"
           font-size="635px"
           font-weight="400"
           id="tspan82"
           style="font-weight:400;font-size:635px"><tspan
             class="TextPosition"
             x="8747"
             y="7001"
             id="tspan84"><tspan
               id="tspan86"
               style="fill:#000000;stroke:none">SSRC</tspan></tspan></tspan><tspan
           class="TextParagraph"
           font-size="635px"
           font-weight="400"
           id="tspan88"
           style="font-weight:400;font-size:635px"><tspan
             class="TextPosition"
             x="9452"
             y="7712"
             id="tspan90"><tspan
               id="tspan92"
               style="fill:#000000;stroke:none">1</tspan></tspan></tspan></text>
</g></g><g
     class="com.sun.star.drawing.CustomShape"
     id="g94"
     transform="translate(-4289.7774,-1978.2224)"><g
       id="id7"><path
         d="m 13692,9168 -1016,0 0,-4064 2032,0 0,4064 -1016,0 z"
         id="path97"
         inkscape:connector-curvature="0"
         style="fill:#83caff;stroke:none" /><path
         d="m 13692,9168 -1016,0 0,-4064 2032,0 0,4064 -1016,0 z"
         id="path99"
         inkscape:connector-curvature="0"
         style="fill:none;stroke:#3465af" /><text
         class="TextShape"
         id="text101"><tspan
           class="TextParagraph"
           font-size="635px"
           font-weight="400"
           id="tspan103"
           style="font-weight:400;font-size:635px"><tspan
             class="TextPosition"
             x="12811"
             y="7001"
             id="tspan105"><tspan
               id="tspan107"
               style="fill:#000000;stroke:none">SSRC</tspan></tspan></tspan><tspan
           class="TextParagraph"
           font-size="635px"
           font-style="italic"
           font-weight="400"
           id="tspan109"
           style="font-style:italic;font-weight:400;font-size:635px"><tspan
             class="TextPosition"
             x="13463"
             y="7712"
             id="tspan111"><tspan
               id="tspan113"
               style="fill:#000000;stroke:none">N</tspan></tspan></tspan></text>
</g></g><path
     d="m 11543.339,7189.7776 -1125.116,0 0,-4064 2250.229,0 0,4064 -1125.113,0 z"
     id="path118"
     inkscape:connector-curvature="0"
     style="fill:#ffff66;stroke:none" /><path
     d="m 11537.921,7193.3876 -1123.308,0 0,-4071.22 2246.615,0 0,4071.22 -1123.307,0 z"
     id="path120"
     inkscape:connector-curvature="0"
     style="fill:none;stroke:#3465af;stroke-width:21.00200272" /><text
     class="TextShape"
     id="text122"
     x="-5335.457"
     y="-2029.1206"><tspan
       class="TextParagraph"
       font-size="635px"
       font-weight="400"
       id="tspan124"
       style="font-weight:400;font-size:635px"><tspan
         class="TextPosition"
         x="10564.543"
         y="4971.8799"
         id="tspan126"><tspan
           id="tspan128"
           style="fill:#000000;stroke:none">SRTP</tspan></tspan></tspan><tspan
       class="TextParagraph"
       font-size="635px"
       font-weight="400"
       id="tspan130"
       style="font-weight:400;font-size:635px"><tspan
         class="TextPosition"
         x="10490.543"
         y="5682.8799"
         id="tspan132"><tspan
           id="tspan134"
           style="fill:#000000;stroke:none">keying</tspan></tspan></tspan></text>
<path
     d="m 15616.033,4903.7776 -2930.193,0 0,-1778 5860.383,0 0,1778 -2930.19,0 z"
     id="path139"
     inkscape:connector-curvature="0"
     style="fill:#ffff66;stroke:none" /><path
     d="m 15614.404,4900.9737 -2929.016,0 0,-1772.3922 5858.031,0 0,1772.3922 -2929.015,0 z"
     id="path141"
     inkscape:connector-curvature="0"
     style="fill:none;stroke:#3465af;stroke-width:33.82990646" /><text
     class="TextShape"
     id="text143"
     x="-4691.6538"
     y="-1972.2598"><tspan
       class="TextParagraph"
       font-size="635px"
       font-weight="400"
       id="tspan145"
       style="font-weight:400;font-size:635px"><tspan
         class="TextPosition"
         x="14846.347"
         y="4241.7407"
         id="tspan147"><tspan
           id="tspan149"
           style="fill:#000000;stroke:none">Data</tspan></tspan></tspan></text>
<path
     d="m 15612.338,7189.7776 -2933.888,0 0,-2286 5867.773,0 0,2286 -2933.885,0 z"
     id="path154"
     inkscape:connector-curvature="0"
     style="fill:#e6e64c;stroke:none" /><path
     d="m 15612.337,7186.9619 -2931.071,0 0,-2280.3686 5862.141,0 0,2280.3686 -2931.07,0 z"
     id="path156"
     inkscape:connector-curvature="0"
     style="fill:none;stroke:#3465af;stroke-width:33.85349274" /><text
     class="TextShape"
     id="text158"
     x="-5177.3135"
     y="-1968.075"><tspan
       class="TextParagraph"
       font-size="635px"
       font-weight="400"
       id="tspan160"
       style="font-weight:400;font-size:635px"><tspan
         class="TextPosition"
         x="14780.689"
         y="6277.9263"
         id="tspan162"><tspan
           id="tspan164"
           style="fill:#000000;stroke:none">SCTP</tspan></tspan></tspan></text>
<g
     class="com.sun.star.drawing.CustomShape"
     id="g166"
     transform="translate(-4289.7774,-1978.2224)"><g
       id="id11"><path
         d="m 11660,11200 -3048,0 0,-2032 6096,0 0,2032 -3048,0 z"
         id="path169"
         inkscape:connector-curvature="0"
         style="fill:#729fcf;stroke:none" /><path
         d="m 11660,11200 -3048,0 0,-2032 6096,0 0,2032 -3048,0 z"
         id="path171"
         inkscape:connector-curvature="0"
         style="fill:none;stroke:#3465af" /><text
         class="TextShape"
         id="text173"><tspan
           class="TextParagraph"
           font-size="635px"
           font-weight="400"
           id="tspan175"
           style="font-weight:400;font-size:635px"><tspan
             class="TextPosition"
             x="10820"
             y="10405"
             id="tspan177"><tspan
               id="tspan179"
               style="fill:#000000;stroke:none">SRTP</tspan></tspan></tspan></text>
</g></g><g
     class="com.sun.star.drawing.CustomShape"
     id="g181"
     transform="translate(-4289.7774,-1978.2224)"><g
       id="id12"><path
         d="m 18772,11200 -4064,0 0,-2032 8128,0 0,2032 -4064,0 z"
         id="path184"
         inkscape:connector-curvature="0"
         style="fill:#ffd320;stroke:none" /><path
         d="m 18772,11200 -4064,0 0,-2032 8128,0 0,2032 -4064,0 z"
         id="path186"
         inkscape:connector-curvature="0"
         style="fill:none;stroke:#3465af" /><text
         class="TextShape"
         id="text188"><tspan
           class="TextParagraph"
           font-size="635px"
           font-weight="400"
           id="tspan190"
           style="font-weight:400;font-size:635px"><tspan
             class="TextPosition"
             x="17962"
             y="10405"
             id="tspan192"><tspan
               id="tspan194"
               style="fill:#000000;stroke:none">DTLS</tspan></tspan></tspan></text>
</g></g><g
     class="com.sun.star.drawing.CustomShape"
     id="g196"
     transform="translate(-4289.7774,-1978.2224)"><g
       id="id13"><path
         d="m 6580,11200 -2032,0 0,-2032 4064,0 0,2032 -2032,0 z"
         id="path199"
         inkscape:connector-curvature="0"
         style="fill:#aecf00;stroke:none" /><path
         d="m 6580,11200 -2032,0 0,-2032 4064,0 0,2032 -2032,0 z"
         id="path201"
         inkscape:connector-curvature="0"
         style="fill:none;stroke:#3465af" /><text
         class="TextShape"
         id="text203"><tspan
           class="TextParagraph"
           font-size="635px"
           font-weight="400"
           id="tspan205"
           style="font-weight:400;font-size:635px"><tspan
             class="TextPosition"
             x="5717"
             y="10405"
             id="tspan207"><tspan
               id="tspan209"
               style="fill:#000000;stroke:none">STUN</tspan></tspan></tspan></text>
</g></g><g
     class="com.sun.star.drawing.CustomShape"
     id="g211"
     transform="translate(-4289.7774,-1978.2224)"><g
       id="id14"><path
         d="m 13692,13232 -9144,0 0,-2032 18288,0 0,2032 -9144,0 z"
         id="path214"
         inkscape:connector-curvature="0"
         style="fill:#7da647;stroke:none" /><path
         d="m 13692,13232 -9144,0 0,-2032 18288,0 0,2032 -9144,0 z"
         id="path216"
         inkscape:connector-curvature="0"
         style="fill:none;stroke:#3465af" /><text
         class="TextShape"
         id="text218"><tspan
           class="TextParagraph"
           font-size="635px"
           font-weight="400"
           id="tspan220"
           style="font-weight:400;font-size:635px"><tspan
             class="TextPosition"
             x="13023"
             y="12437"
             id="tspan222"><tspan
               id="tspan224"
               style="fill:#000000;stroke:none">UDP</tspan></tspan></tspan></text>
</g></g><g
     class="com.sun.star.drawing.CustomShape"
     id="g226"
     transform="translate(-4289.7774,-1978.2224)"><g
       id="id15"><path
         d="m 13692,15264 -9144,0 0,-2032 18288,0 0,2032 -9144,0 z"
         id="path229"
         inkscape:connector-curvature="0"
         style="fill:#5c8526;stroke:none" /><path
         d="m 13692,15264 -9144,0 0,-2032 18288,0 0,2032 -9144,0 z"
         id="path231"
         inkscape:connector-curvature="0"
         style="fill:none;stroke:#3465af" /><text
         class="TextShape"
         id="text233"><tspan
           class="TextParagraph"
           font-size="635px"
           font-weight="400"
           id="tspan235"
           style="font-weight:400;font-size:635px"><tspan
             class="TextPosition"
             x="13392"
             y="14469"
             id="tspan237"><tspan
               id="tspan239"
               style="fill:#000000;stroke:none">IP</tspan></tspan></tspan></text>
</g></g><g
     class="com.sun.star.drawing.TextShape"
     id="g241"
     transform="translate(-4289.7774,-1978.2224)"><g
       id="id16"><text
         class="TextShape"
         id="text244"><tspan
           class="TextParagraph"
           font-size="776px"
           font-weight="700"
           id="tspan246"
           style="font-weight:700;font-size:776px"><tspan
             class="TextPosition"
             x="11202"
             y="7156"
             id="tspan248"><tspan
               id="tspan250"
               style="fill:#000000;stroke:none">. . .</tspan></tspan></tspan></text>
</g></g><g
     class="com.sun.star.drawing.LineShape"
     id="g252"
     transform="translate(-4289.7774,-1978.2224)"><g
       id="id17"><path
         d="m 8612,11200 1,-508"
         id="path255"
         inkscape:connector-curvature="0"
         style="fill:none;stroke:#000000;stroke-width:102" /><path
         d="m 8615,10184 1,-508"
         id="path257"
         inkscape:connector-curvature="0"
         style="fill:none;stroke:#000000;stroke-width:102" /><path
         d="m 8617,9168 2,-508"
         id="path259"
         inkscape:connector-curvature="0"
         style="fill:none;stroke:#000000;stroke-width:102" /><path
         d="m 8620,8152 2,-508"
         id="path261"
         inkscape:connector-curvature="0"
         style="fill:none;stroke:#000000;stroke-width:102" /><path
         d="m 8623,7136 1,-508"
         id="path263"
         inkscape:connector-curvature="0"
         style="fill:none;stroke:#000000;stroke-width:102" /><path
         d="m 8626,6120 1,-508"
         id="path265"
         inkscape:connector-curvature="0"
         style="fill:none;stroke:#000000;stroke-width:102" /><path
         d="m 8628,5104 2,-508"
         id="path267"
         inkscape:connector-curvature="0"
         style="fill:none;stroke:#000000;stroke-width:102" /><path
         d="m 8631,4088 2,-508"
         id="path269"
         inkscape:connector-curvature="0"
         style="fill:none;stroke:#000000;stroke-width:102" /><path
         d="m 8634,3072 1,-508"
         id="path271"
         inkscape:connector-curvature="0"
         style="fill:none;stroke:#000000;stroke-width:102" /></g></g><g
     class="com.sun.star.drawing.LineShape"
     id="g273"
     transform="translate(-2046.1125,-1950.0002)"><g
       id="id18"><path
         d="m 14708,11200 1,-508"
         id="path276"
         inkscape:connector-curvature="0"
         style="fill:none;stroke:#000000;stroke-width:102" /><path
         d="m 14711,10184 1,-508"
         id="path278"
         inkscape:connector-curvature="0"
         style="fill:none;stroke:#000000;stroke-width:102" /><path
         d="m 14714,9168 1,-508"
         id="path280"
         inkscape:connector-curvature="0"
         style="fill:none;stroke:#000000;stroke-width:102" /><path
         d="m 14716,8152 2,-508"
         id="path282"
         inkscape:connector-curvature="0"
         style="fill:none;stroke:#000000;stroke-width:102" /><path
         d="m 14719,7136 2,-508"
         id="path284"
         inkscape:connector-curvature="0"
         style="fill:none;stroke:#000000;stroke-width:102" /><path
         d="m 14722,6120 1,-508"
         id="path286"
         inkscape:connector-curvature="0"
         style="fill:none;stroke:#000000;stroke-width:102" /><path
         d="m 14725,5104 1,-508"
         id="path288"
         inkscape:connector-curvature="0"
         style="fill:none;stroke:#000000;stroke-width:102" /><path
         d="m 14728,4088 1,-508"
         id="path290"
         inkscape:connector-curvature="0"
         style="fill:none;stroke:#000000;stroke-width:102" /><path
         d="m 14731,3072 1,-508"
         id="path292"
         inkscape:connector-curvature="0"
         style="fill:none;stroke:#000000;stroke-width:102" /></g></g><g
     class="com.sun.star.drawing.TextShape"
     id="g294"
     transform="translate(-3198.167,-1973.5028)"><g
       id="id19"><text
         class="TextShape"
         id="text297"><tspan
           class="TextParagraph"
           font-size="635px"
           font-weight="400"
           id="tspan299"
           style="font-weight:400;font-size:635px"><tspan
             class="TextPosition"
             x="10702"
             y="3324"
             id="tspan301"><tspan
               id="tspan303"
               style="fill:#000000;stroke:none">Media</tspan></tspan></tspan><tspan
           class="TextParagraph"
           font-size="635px"
           font-weight="400"
           id="tspan305"
           style="font-weight:400;font-size:635px"><tspan
             class="TextPosition"
             x="10386"
             y="4035"
             id="tspan307"><tspan
               id="tspan309"
               style="fill:#000000;stroke:none">Channel</tspan></tspan></tspan></text>
</g></g><g
     class="com.sun.star.drawing.TextShape"
     id="g311"
     transform="translate(-3217.3338,-1978.2224)"><g
       id="id20"><text
         class="TextShape"
         id="text314"><tspan
           class="TextParagraph"
           font-size="635px"
           font-weight="400"
           id="tspan316"
           style="font-weight:400;font-size:635px"><tspan
             class="TextPosition"
             x="17894"
             y="3325"
             id="tspan318"><tspan
               id="tspan320"
               style="fill:#000000;stroke:none">Data</tspan></tspan></tspan><tspan
           class="TextParagraph"
           font-size="635px"
           font-weight="400"
           id="tspan322"
           style="font-weight:400;font-size:635px"><tspan
             class="TextPosition"
             x="17386"
             y="4036"
             id="tspan324"><tspan
               id="tspan326"
               style="fill:#000000;stroke:none">Channel</tspan></tspan></tspan></text>
</g></g><g
     class="com.sun.star.drawing.TextShape"
     id="g328"
     transform="translate(-4571.9994,-1978.2224)"><g
       id="id21"><text
         class="TextShape"
         id="text331"><tspan
           class="TextParagraph"
           font-size="635px"
           font-weight="400"
           id="tspan333"
           style="font-weight:400;font-size:635px"><tspan
             class="TextPosition"
             x="6085"
             y="3325"
             id="tspan335"><tspan
               id="tspan337"
               style="fill:#000000;stroke:none">NAT</tspan></tspan></tspan><tspan
           class="TextParagraph"
           font-size="635px"
           font-weight="400"
           id="tspan339"
           style="font-weight:400;font-size:635px"><tspan
             class="TextPosition"
             x="5386"
             y="4036"
             id="tspan341"><tspan
               id="tspan343"
               style="fill:#000000;stroke:none">Traversal</tspan></tspan></tspan></text>
</g></g></svg>